<svg version="1.1" xmlns="http://www.w3.org/2000/svg" xmlns:xlink="http://www.w3.org/1999/xlink" width="48" height="48"><defs><linearGradient x1="3.43481" y1="10.17469" x2="51.26288" y2="44.52308" gradientUnits="userSpaceOnUse" id="color-1"><stop offset="0.45" stop-color="#000000" stop-opacity="0.64"></stop><stop offset="1" stop-color="#000000" stop-opacity="0"></stop></linearGradient><filter id="dropshadow-base"><feColorMatrix type="matrix" values="0 0 0 0 0  0 0 0 0 0  0 0 0 0 0  0 0 0 .8 0"></feColorMatrix> <feOffset dx="0" dy="1"></feOffset> <feGaussianBlur stdDeviation="1"></feGaussianBlur> <feComposite in="SourceGraphic"></feComposite></filter><filter id="dropshadow-banner" x="-10%" y="-10%" width="120%" height="130%"><feColorMatrix type="matrix" values="0 0 0 0 0  0 0 0 0 0  0 0 0 0 0  0 0 0 .4 0"></feColorMatrix> <feOffset dx="0" dy="1"></feOffset> <feGaussianBlur stdDeviation="0.5"></feGaussianBlur> <feComposite in="SourceGraphic"></feComposite></filter></defs><g fill="none" fill-rule="nonzero" stroke="none" stroke-width="none" stroke-linecap="butt" stroke-linejoin="miter" stroke-miterlimit="10" stroke-dasharray="" stroke-dashoffset="0" font-family="none" font-weight="none" font-size="none" text-anchor="none" style="mix-blend-mode: normal"><path d="M2,24c0,-12.15026 9.84974,-22 22,-22c12.15026,0 22,9.84974 22,22c0,12.15026 -9.84974,22 -22,22c-12.15026,0 -22,-9.84974 -22,-22z" id="base 1 9" fill="#2da899" stroke-width="1"></path><path d="M29.62515,30.16955l0.7431,0.7431h2.44536l0.65488,-2.6632l-2.02012,-2.02012l-1.54089,-8.01005c-1.80148,-0.86267 -3.81888,-1.34682 -5.94959,-1.34682c-1.06814,0 -2.10789,0.12098 -3.10631,0.34999l4.83449,4.83449l3.29322,9.26217c0.23271,-0.37174 0.44836,-0.75529 0.64587,-1.14955zM21.77644,23.33181l0.07226,0.07226l-0.04898,-0.13775zM11.4213,36.53659c1.77356,0.82697 3.75202,1.28873 5.83882,1.28873c0.83273,0 1.64791,-0.07369 2.43951,-0.2149h-3.00003l-6.56269,-6.56269c0.04859,1.95805 0.50379,3.81474 1.28439,5.48887zM21.19284,34.15409l-1.18953,3.39862c2.0094,-0.40533 3.85942,-1.24734 5.44917,-2.42251l-0.97611,-0.97611zM36.7884,15.35918l3.91587,3.91587l0.75018,-3.91587l2.78375,-0.00002c1.13405,2.65268 1.7618,5.57345 1.7618,8.64084c0,4.26034 -1.21099,8.23783 -3.30753,11.60704l-2.15785,-2.15785l-1.02325,4.16123h-3.02429l-0.36234,-0.36234c-2.33891,4.3293 -6.90201,7.27501 -12.16686,7.27501c-3.81925,0 -7.27558,-1.54671 -9.77709,-4.04822l-6.69777,-6.69777c0,0 0,0 0,0c-2.50152,-2.50152 -4.04822,-5.95785 -4.04822,-9.77709c0,-7.63849 6.18682,-13.82531 13.82531,-13.82531c3.81662,0 7.26969,1.55343 9.76944,4.05318l1.13131,1.13131h1.19641l3.77242,3.77242l0.89363,-3.77242l3.62717,3.62717zM13.14061,22.08486c-1.85301,2.32461 -2.97205,5.26049 -3.00718,8.45769z" fill="url(#color-1)" stroke-width="1"></path><path d="M15.27277,25.12331h3.97478l-1.98739,-6.3078zM41.45446,15.35918l-2.08244,10.87015l-2.58361,-10.87015h-2.76506l-2.57496,10.87015l-2.09108,-10.87015h-1.3134c-2.53176,-3.1539 -6.42013,-5.18449 -10.78374,-5.18449c-7.63849,0 -13.82531,6.18683 -13.82531,13.82531c0,7.63849 6.18683,13.82531 13.82531,13.82531c5.41779,0 10.09248,-3.11934 12.36501,-7.65577l0.16418,0.74311h3.02429l2.59225,-10.5418l2.59225,10.5418h3.02429l3.54274,-15.55348zM21.23494,30.91266l-1.20971,-3.45633h-5.53013l-1.20971,3.45633h-3.28351l5.53013,-15.55348h3.45633l5.53013,15.55348z" fill="none" stroke-width="0"></path><path d="M17.26016,18.81551l1.98739,6.3078h-3.97478zM41.02242,30.91266h-3.02429l-2.59225,-10.5418l-2.59225,10.5418h-3.02429l-0.16418,-0.74311c-2.27254,4.53643 -6.94722,7.65577 -12.36501,7.65577c-7.63849,0 -13.82531,-6.18683 -13.82531,-13.82531c0,-7.63849 6.18683,-13.82531 13.82531,-13.82531c4.36361,0 8.25198,2.03059 10.78374,5.18449h1.3134l2.09108,10.87015l2.57496,-10.87015h2.76506l2.58361,10.87015l2.08244,-10.87015l2.78375,0c0.07229,0.16909 0.14252,0.33928 0.21066,0.51052zM24.51845,30.91266l-5.53013,-15.55348h-3.45633l-5.53013,15.55348h3.28351l1.20971,-3.45633h5.53013l1.20971,3.45633z" fill="#ffffff" stroke-width="0"></path><path d="M2,24c0,-12.15026 9.84974,-22 22,-22c12.15026,0 22,9.84974 22,22c0,12.15026 -9.84974,22 -22,22c-12.15026,0 -22,-9.84974 -22,-22z" id="base 1 5 1" fill="none" stroke-width="1"></path><path d="M2,24c0,-12.15026 9.84974,-22 22,-22c12.15026,0 22,9.84974 22,22c0,12.15026 -9.84974,22 -22,22c-12.15026,0 -22,-9.84974 -22,-22z" id="base 1 1 1" fill="none" stroke-width="1"></path><g fill="#000000" stroke-width="1" font-family="Roboto, sans-serif" font-weight="400" font-size="14" text-anchor="start"></g><rect x="2" y="2" width="44" height="22" fill="none" stroke-width="1"></rect><path d="M2,24v-22h44v22z" fill="none" stroke-width="1"></path><path d="M2,24v-22h44v22z" fill="none" stroke-width="1"></path><path d="M2,24v-22h44v22z" fill="none" stroke-width="1"></path><path d="M2,24v-22h44v22z" fill="none" stroke-width="1"></path><g fill="#000000" stroke-width="1" font-family="Roboto, sans-serif" font-weight="400" font-size="14" text-anchor="start"></g><rect x="2" y="2" width="44" height="22" fill="none" stroke-width="1"></rect><path d="M2,24v-22h44v22z" fill="none" stroke-width="1"></path><path d="M2,24v-22h44v22z" fill="none" stroke-width="1"></path><path d="M2,24v-22h44v22z" fill="none" stroke-width="1"></path><path d="M2,24v-22h44v22z" fill="none" stroke-width="1"></path><path d="M24,2c12.15026,0 22,9.84974 22,22h-44c0,-12.15026 9.84974,-22 22,-22z" id="base 1 5 1" fill-opacity="0.1" fill="#000000" stroke-width="1"></path></g></svg>